<svg xmlns="http://www.w3.org/2000/svg" viewBox="0 0 240 240" width="240" height="240">
<defs>
    <filter id="carve" x="-14%" y="-14%" width="128%" height="128%">
      <feTurbulence type="fractalNoise" baseFrequency="0.055" numOctaves="3" seed="187" result="n"/>
      <feDisplacementMap in="SourceGraphic" in2="n" scale="2.6" xChannelSelector="R" yChannelSelector="G"/>
    </filter>
    <filter id="grain" x="0" y="0" width="100%" height="100%">
      <feTurbulence type="fractalNoise" baseFrequency="0.85" numOctaves="2" seed="198" result="t"/>
      <feColorMatrix in="t" type="saturate" values="0"/>
      <feComponentTransfer><feFuncA type="linear" slope="0.055"/></feComponentTransfer>
    </filter>
  
    <filter id="carveHard" x="-12%" y="-12%" width="124%" height="124%">
      <feTurbulence type="fractalNoise" baseFrequency="0.10" numOctaves="2" seed="190" result="n"/>
      <feDisplacementMap in="SourceGraphic" in2="n" scale="4.2" xChannelSelector="R" yChannelSelector="G"/>
    </filter>
  </defs>
  <rect width="240" height="240" rx="6" fill="#EFE8D8"/>
  <rect x="10" y="10" width="220" height="220" rx="4" fill="none" stroke="#B0302A" stroke-width="8" filter="url(#carveHard)"/><rect x="24" y="24" width="192" height="192" rx="2" fill="none" stroke="#B0302A" stroke-width="1.8" opacity=".5" filter="url(#carve)"/>
  <g transform="translate(120.0,120.0) scale(1.72) translate(-50,-50)" filter="url(#carve)"><g>
      <circle cx="50" cy="34" r="24" fill="#B0302A"/>
      <circle cx="50" cy="34" r="18" fill="none" stroke="#EFE8D8" stroke-width="2.4"/>
      <g fill="#EFE8D8"><circle cx="50" cy="24" r="4"/><circle cx="40" cy="34" r="4"/>
        <circle cx="60" cy="34" r="4"/><circle cx="50" cy="44" r="4"/></g>
      <path d="M42 10 h16 v6 H42 Z" fill="#B0302A"/>
      <g opacity=".45"><g transform="translate(50,76)"><path d="M -6.2,-15.0 L 6.2,-15.0 L 15.0,-6.2 L 15.0,6.2 L 6.2,15.0 L -6.2,15.0 L -15.0,6.2 L -15.0,-6.2 Z" fill="#EFE8D8" stroke="#B0302A" stroke-width="1.6"/></g><g transform="translate(50,76) scale(0.01674,-0.01674) translate(-500.0,-353.0)" fill="#B0302A" filter="url(#carve)"><path d="M609 506Q609 510 612 512Q615 513 622 513Q629 513 640 511Q651 509 666 506Q689 500 713 486Q737 473 743 462Q747 455 748 431Q749 414 747 408Q745 403 737 395Q726 382 712 384Q697 386 689 394L645 432Q591 481 605 495Q609 500 609 506ZM405 803Q408 808 420 815Q431 822 441 818Q473 810 489 796Q505 783 510 762Q516 737 517 719L518 704L560 706Q602 708 623 705Q638 703 642 698Q645 694 657 672Q660 664 652 654Q643 644 630 641Q617 638 588 644Q560 649 502 648Q444 648 423 642Q400 637 391 637Q382 637 368 630L355 624L384 600Q402 586 408 579Q414 572 414 566Q414 546 398 546Q392 546 378 528Q363 509 365 505Q367 502 377 502Q386 502 400 496Q414 490 414 486Q414 482 426 476Q438 469 444 456Q451 442 454 442Q456 442 479 469Q502 496 510 509Q540 554 551 604Q558 632 564 632Q571 632 577 638Q580 642 588 634Q596 626 615 600Q632 577 626 558Q620 539 584 508L534 461Q515 443 487 425Q457 405 458 400Q458 398 466 400Q473 403 484 399Q497 394 511 384Q525 373 525 369Q525 364 531 359Q537 354 537 335V316L594 314Q651 313 726 317Q785 320 807 318Q829 317 838 308Q864 280 868 268Q871 257 860 246Q853 239 848 238Q844 236 833 239Q800 244 728 248Q662 251 600 252H538L536 217Q533 178 523 20Q521 -17 508 -61Q495 -105 485 -111Q478 -116 470 -110Q462 -105 459 -94Q448 -58 443 146L441 244H430Q421 244 393 238Q365 232 347 231Q268 222 254 220Q239 217 227 210Q213 200 208 202Q203 205 194 200Q177 191 154 208Q130 225 132 244Q133 251 136 254Q140 258 150 262Q202 280 262 288Q298 292 338 298Q377 304 404 304Q432 304 436 306Q441 309 443 351L445 394L434 398Q425 402 418 396Q412 390 403 390Q398 390 388 398Q379 405 379 410Q379 413 364 430Q348 448 343 459Q338 470 336 470Q333 470 316 452Q298 433 278 420Q258 408 250 399Q243 390 238 390Q233 390 210 379Q173 359 178 373Q180 382 200 403Q207 410 228 436Q250 463 260 474Q273 487 296 526Q319 566 319 574Q319 580 325 584Q331 589 331 602Q331 616 338 616Q345 616 332 628Q319 641 316 641Q312 641 312 653Q312 661 316 665Q319 669 333 674Q353 684 391 690Q429 696 434 699Q438 702 432 715Q422 738 412 769Q402 800 405 803Z"/></g></g>
      <path d="M26 76 q-8 -6 -12 -2 M74 76 q8 -6 12 -2" stroke="#B0302A" stroke-width="2.6"
            fill="none" stroke-linecap="round" opacity=".5"/>
      <path d="M14 94 h72" stroke="#B0302A" stroke-width="3.4" stroke-linecap="round"/>
    </g></g>
</svg>