<svg xmlns="http://www.w3.org/2000/svg" viewBox="0 0 240 240" width="240" height="240">
<defs>
    <filter id="carve" x="-14%" y="-14%" width="128%" height="128%">
      <feTurbulence type="fractalNoise" baseFrequency="0.055" numOctaves="3" seed="199" result="n"/>
      <feDisplacementMap in="SourceGraphic" in2="n" scale="2.6" xChannelSelector="R" yChannelSelector="G"/>
    </filter>
    <filter id="grain" x="0" y="0" width="100%" height="100%">
      <feTurbulence type="fractalNoise" baseFrequency="0.85" numOctaves="2" seed="210" result="t"/>
      <feColorMatrix in="t" type="saturate" values="0"/>
      <feComponentTransfer><feFuncA type="linear" slope="0.055"/></feComponentTransfer>
    </filter>
  
    <filter id="carveHard" x="-12%" y="-12%" width="124%" height="124%">
      <feTurbulence type="fractalNoise" baseFrequency="0.10" numOctaves="2" seed="202" result="n"/>
      <feDisplacementMap in="SourceGraphic" in2="n" scale="4.2" xChannelSelector="R" yChannelSelector="G"/>
    </filter>
  </defs>
  <rect width="240" height="240" rx="6" fill="#EFE8D8"/>
  <rect x="10" y="10" width="220" height="220" rx="4" fill="#B0302A" filter="url(#carveHard)"/><rect x="21" y="21" width="198" height="198" rx="2" fill="none" stroke="#EFE8D8" stroke-width="3.4" opacity=".9" filter="url(#carve)"/>
  <g transform="translate(120.0,120.0) scale(1.72) translate(-50,-50)" filter="url(#carve)"><g>
      <g><g transform="translate(18,50)"><path d="M -6.2,-15.0 L 6.2,-15.0 L 15.0,-6.2 L 15.0,6.2 L 6.2,15.0 L -6.2,15.0 L -15.0,6.2 L -15.0,-6.2 Z" fill="#B0302A" stroke="#EFE8D8" stroke-width="1.6"/></g><g transform="translate(18,50) scale(0.01663,-0.01663) translate(-500.5,-380.0)" fill="#EFE8D8" filter="url(#carve)"><path d="M153 586V174H171C220 174 271 200 271 212V242H435V122H33L41 94H435V-89H459C505 -89 556 -65 556 -54V94H939C954 94 965 99 968 110C919 151 841 208 841 208L771 122H556V242H725V202H745C786 202 843 228 844 236V538C865 542 878 551 885 559L770 647L715 586H556V688H910C925 688 936 693 939 704C891 744 812 801 812 801L743 716H556V804C583 808 591 819 593 833L435 849V716H65L73 688H435V586H279L153 636ZM435 558V432H271V558ZM556 558H725V432H556ZM435 271H271V403H435ZM556 271V403H725V271Z"/></g></g>
      <g stroke="#EFE8D8" stroke-width="2.6" opacity=".55"><path d="M36 36 v28"/><path d="M49 36 v28"/><path d="M62 36 v28"/><path d="M75 36 v28"/><path d="M88 36 v28"/></g>
      <g fill="#EFE8D8"><circle cx="36" cy="50" r="3.4"/><circle cx="49" cy="50" r="3.4"/><circle cx="62" cy="50" r="3.4"/><circle cx="75" cy="50" r="3.4"/></g>
      <g stroke="#EFE8D8" stroke-width="6" stroke-linecap="round"><path d="M92 28 v44"/></g>
      <g stroke="#EFE8D8" stroke-width="5" stroke-linecap="round">
        <path d="M80 42 L96 58 M96 42 L80 58"/>
      </g>
      <path d="M36 78 h39 M36 74 v8 M75 74 v8" stroke="#EFE8D8" stroke-width="2.4" opacity=".6"/>
    </g></g>
</svg>