<svg xmlns="http://www.w3.org/2000/svg" viewBox="0 0 240 240" width="240" height="240">
<defs>
    <filter id="carve" x="-14%" y="-14%" width="128%" height="128%">
      <feTurbulence type="fractalNoise" baseFrequency="0.055" numOctaves="3" seed="130" result="n"/>
      <feDisplacementMap in="SourceGraphic" in2="n" scale="2.6" xChannelSelector="R" yChannelSelector="G"/>
    </filter>
    <filter id="grain" x="0" y="0" width="100%" height="100%">
      <feTurbulence type="fractalNoise" baseFrequency="0.85" numOctaves="2" seed="141" result="t"/>
      <feColorMatrix in="t" type="saturate" values="0"/>
      <feComponentTransfer><feFuncA type="linear" slope="0.055"/></feComponentTransfer>
    </filter>
  
    <filter id="carveHard" x="-12%" y="-12%" width="124%" height="124%">
      <feTurbulence type="fractalNoise" baseFrequency="0.10" numOctaves="2" seed="133" result="n"/>
      <feDisplacementMap in="SourceGraphic" in2="n" scale="4.2" xChannelSelector="R" yChannelSelector="G"/>
    </filter>
  </defs>
  <rect width="240" height="240" rx="6" fill="#EFE8D8"/>
  <rect x="10" y="10" width="220" height="220" rx="4" fill="none" stroke="#B0302A" stroke-width="8" filter="url(#carveHard)"/><rect x="24" y="24" width="192" height="192" rx="2" fill="none" stroke="#B0302A" stroke-width="1.8" opacity=".5" filter="url(#carve)"/>
  <g transform="translate(120.0,120.0) scale(1.72) translate(-50,-50)" filter="url(#carve)"><g>
      <g fill="none" opacity="1.0"><rect x="23.0" y="27.0" width="54" height="54" stroke="#B0302A" stroke-width="3.4"/><path d="M23.0 27.0 L77.0 81.0 M77.0 27.0 L23.0 81.0" stroke="#B0302A" stroke-width="1.43" opacity=".5"/></g>
      <rect x="18" y="18" width="64" height="13" rx="2" fill="#B0302A"/>
      <g stroke="#EFE8D8" stroke-width="2.4"><path d="M18 24 h64 M34 18 v6 M50 24 v7 M66 18 v6"/></g>
      <path d="M50 4 v10 M42 10 l8 -8 l8 8" stroke="#B0302A" stroke-width="3.4" fill="none"
            stroke-linecap="round" stroke-linejoin="round" opacity=".45"/>
      <path d="M30 8 L70 8" stroke="#B0302A" stroke-width="3" stroke-linecap="round" opacity=".3"/>
    </g></g>
</svg>