<svg xmlns="http://www.w3.org/2000/svg" viewBox="0 0 100 100" width="100" height="100" role="img" aria-label="cho 내시">
  <title>내시 · sa 변신</title>
<defs>
    <filter id="carve" x="-14%" y="-14%" width="128%" height="128%">
      <feTurbulence type="fractalNoise" baseFrequency="0.055" numOctaves="3" seed="13" result="n"/>
      <feDisplacementMap in="SourceGraphic" in2="n" scale="2.6" xChannelSelector="R" yChannelSelector="G"/>
    </filter>
    <filter id="grain" x="0" y="0" width="100%" height="100%">
      <feTurbulence type="fractalNoise" baseFrequency="0.85" numOctaves="2" seed="24" result="t"/>
      <feColorMatrix in="t" type="saturate" values="0"/>
      <feComponentTransfer><feFuncA type="linear" slope="0.055"/></feComponentTransfer>
    </filter>
  </defs>
  <g transform="translate(50,50)"><path d="M -18.2,-44.0 L 18.2,-44.0 L 44.0,-18.2 L 44.0,18.2 L 18.2,44.0 L -18.2,44.0 L -44.0,18.2 L -44.0,-18.2 Z" fill="#D6C8A6" transform="translate(1.5,2.5)" opacity=".55"/><path d="M -18.2,-44.0 L 18.2,-44.0 L 44.0,-18.2 L 44.0,18.2 L 18.2,44.0 L -18.2,44.0 L -44.0,18.2 L -44.0,-18.2 Z" fill="#EDE4CD" stroke="#124A2A" stroke-width="2.4"/><path d="M -15.9,-38.5 L 15.9,-38.5 L 38.5,-15.9 L 38.5,15.9 L 15.9,38.5 L -15.9,38.5 L -38.5,15.9 L -38.5,-15.9 Z" fill="none" stroke="#1D6B3F" stroke-width="1.3" opacity=".8" filter="url(#carve)"/><path d="M -14.5,-35.0 L 14.5,-35.0 L 35.0,-14.5 L 35.0,14.5 L 14.5,35.0 L -14.5,35.0 L -35.0,14.5 L -35.0,-14.5 Z" fill="none" stroke="#1D6B3F" stroke-width="0.9" opacity=".5" filter="url(#carve)"/></g><g transform="translate(50,50) scale(.70) translate(-50,-50)" filter="url(#carve)"><g>
      <path d="M34 26 h32 v12 H34 Z" fill="#1D6B3F"/>
      <path d="M30 26 q20 -14 40 0 Z" fill="#1D6B3F"/>
      <path d="M28 30 q-10 2 -10 8 q8 2 12 -2 Z" fill="#1D6B3F"/>
      <path d="M72 30 q10 2 10 8 q-8 2 -12 -2 Z" fill="#1D6B3F"/>
      <circle cx="50" cy="47" r="8" fill="#1D6B3F"/>
      <path d="M38 58 q12 -5 24 0 q7 15 5 30 H33 q-2 -15 5 -30 Z" fill="#1D6B3F"/>
      <path d="M50 60 v26" stroke="#EDE4CD" stroke-width="2.6"/>
      <path d="M44 62 h12" stroke="#EDE4CD" stroke-width="2.2"/>
      <path d="M66 52 h7 v26 h-7 Z" fill="#1D6B3F"/>
    </g></g><g class="pips"><circle cx="50.0" cy="79" r="2.6" fill="#1D6B3F"/></g>
</svg>