<svg xmlns="http://www.w3.org/2000/svg" viewBox="0 0 100 100" width="100" height="100" role="img" aria-label="cho 무당">
  <title>무당 · sang 변신</title>
<defs>
    <filter id="carve" x="-14%" y="-14%" width="128%" height="128%">
      <feTurbulence type="fractalNoise" baseFrequency="0.055" numOctaves="3" seed="13" result="n"/>
      <feDisplacementMap in="SourceGraphic" in2="n" scale="2.6" xChannelSelector="R" yChannelSelector="G"/>
    </filter>
    <filter id="grain" x="0" y="0" width="100%" height="100%">
      <feTurbulence type="fractalNoise" baseFrequency="0.85" numOctaves="2" seed="24" result="t"/>
      <feColorMatrix in="t" type="saturate" values="0"/>
      <feComponentTransfer><feFuncA type="linear" slope="0.055"/></feComponentTransfer>
    </filter>
  </defs>
  <g transform="translate(50,50)"><path d="M -18.2,-44.0 L 18.2,-44.0 L 44.0,-18.2 L 44.0,18.2 L 18.2,44.0 L -18.2,44.0 L -44.0,18.2 L -44.0,-18.2 Z" fill="#D6C8A6" transform="translate(1.5,2.5)" opacity=".55"/><path d="M -18.2,-44.0 L 18.2,-44.0 L 44.0,-18.2 L 44.0,18.2 L 18.2,44.0 L -18.2,44.0 L -44.0,18.2 L -44.0,-18.2 Z" fill="#EDE4CD" stroke="#124A2A" stroke-width="2.4"/><path d="M -15.9,-38.5 L 15.9,-38.5 L 38.5,-15.9 L 38.5,15.9 L 15.9,38.5 L -15.9,38.5 L -38.5,15.9 L -38.5,-15.9 Z" fill="none" stroke="#1D6B3F" stroke-width="1.3" opacity=".8" filter="url(#carve)"/><path d="M -14.5,-35.0 L 14.5,-35.0 L 35.0,-14.5 L 35.0,14.5 L 14.5,35.0 L -14.5,35.0 L -35.0,14.5 L -35.0,-14.5 Z" fill="none" stroke="#1D6B3F" stroke-width="0.9" opacity=".5" filter="url(#carve)"/></g><g transform="translate(50,50) scale(.70) translate(-50,-50)" filter="url(#carve)"><g>
      <path d="M50 8 l12 22 H38 Z" fill="#1D6B3F"/>
      <path d="M43 30 h14 v4 H43 Z" fill="#1D6B3F"/>
      <circle cx="50" cy="42" r="8.5" fill="#1D6B3F"/>
      <path d="M41 52 q9 -4 18 0 q7 18 5 36 H36 q-2 -18 5 -36 Z" fill="#1D6B3F"/>
      <path d="M44 60 h12 M43 70 h14" stroke="#EDE4CD" stroke-width="2.4" stroke-linecap="round"/>
      <path d="M41 56 L24 48" stroke="#1D6B3F" stroke-width="4.5" stroke-linecap="round"/>
      <path d="M59 56 L76 48" stroke="#1D6B3F" stroke-width="4.5" stroke-linecap="round"/>
      <path d="M2 40 A26 26 0 0 1 30 28 L24 52 Z" fill="#1D6B3F"/>
      <g stroke="#EDE4CD" stroke-width="1.6" fill="none">
        <path d="M8 36 L23 48 M15 31 L26 47 M22 29 L28 45"/>
      </g>
      <path d="M76 48 v-8" stroke="#1D6B3F" stroke-width="2.6" stroke-linecap="round"/>
      <g fill="#1D6B3F"><circle cx="76" cy="34" r="5"/><circle cx="86" cy="40" r="4.2"/><circle cx="88" cy="29" r="3.6"/></g>
    </g></g>
</svg>