<svg xmlns="http://www.w3.org/2000/svg" viewBox="0 0 100 100" width="100" height="100" role="img" aria-label="han 화차">
  <title>화차 · po 변신</title>
<defs>
    <filter id="carve" x="-14%" y="-14%" width="128%" height="128%">
      <feTurbulence type="fractalNoise" baseFrequency="0.055" numOctaves="3" seed="13" result="n"/>
      <feDisplacementMap in="SourceGraphic" in2="n" scale="2.6" xChannelSelector="R" yChannelSelector="G"/>
    </filter>
    <filter id="grain" x="0" y="0" width="100%" height="100%">
      <feTurbulence type="fractalNoise" baseFrequency="0.85" numOctaves="2" seed="24" result="t"/>
      <feColorMatrix in="t" type="saturate" values="0"/>
      <feComponentTransfer><feFuncA type="linear" slope="0.055"/></feComponentTransfer>
    </filter>
  </defs>
  <g transform="translate(50,50)"><path d="M -18.2,-44.0 L 18.2,-44.0 L 44.0,-18.2 L 44.0,18.2 L 18.2,44.0 L -18.2,44.0 L -44.0,18.2 L -44.0,-18.2 Z" fill="#D6C8A6" transform="translate(1.5,2.5)" opacity=".55"/><path d="M -18.2,-44.0 L 18.2,-44.0 L 44.0,-18.2 L 44.0,18.2 L 18.2,44.0 L -18.2,44.0 L -44.0,18.2 L -44.0,-18.2 Z" fill="#EDE4CD" stroke="#8A2420" stroke-width="2.4"/><path d="M -15.9,-38.5 L 15.9,-38.5 L 38.5,-15.9 L 38.5,15.9 L 15.9,38.5 L -15.9,38.5 L -38.5,15.9 L -38.5,-15.9 Z" fill="none" stroke="#B0302A" stroke-width="1.3" opacity=".8" filter="url(#carve)"/><path d="M -14.5,-35.0 L 14.5,-35.0 L 35.0,-14.5 L 35.0,14.5 L 14.5,35.0 L -14.5,35.0 L -35.0,14.5 L -35.0,-14.5 Z" fill="none" stroke="#B0302A" stroke-width="0.9" opacity=".5" filter="url(#carve)"/></g><g transform="translate(50,50) scale(.70) translate(-50,-50)" filter="url(#carve)"><g>
      <path d="M24 24 h52 v40 H24 Z" fill="#B0302A"/>
      <g fill="#EDE4CD"><circle cx="32.0" cy="32.0" r="3.4"/><circle cx="32.0" cy="42.6" r="3.4"/><circle cx="32.0" cy="53.2" r="3.4"/><circle cx="42.6" cy="32.0" r="3.4"/><circle cx="42.6" cy="42.6" r="3.4"/><circle cx="42.6" cy="53.2" r="3.4"/><circle cx="53.2" cy="32.0" r="3.4"/><circle cx="53.2" cy="42.6" r="3.4"/><circle cx="53.2" cy="53.2" r="3.4"/><circle cx="63.8" cy="32.0" r="3.4"/><circle cx="63.8" cy="42.6" r="3.4"/><circle cx="63.8" cy="53.2" r="3.4"/><circle cx="74.4" cy="32.0" r="3.4"/><circle cx="74.4" cy="42.6" r="3.4"/><circle cx="74.4" cy="53.2" r="3.4"/></g>
      <path d="M20 66 h60 l-6 8 H26 Z" fill="#B0302A"/>
      <circle cx="34" cy="80" r="6.5" fill="#B0302A"/><circle cx="34" cy="80" r="2.4" fill="#EDE4CD"/>
      <circle cx="66" cy="80" r="6.5" fill="#B0302A"/><circle cx="66" cy="80" r="2.4" fill="#EDE4CD"/>
      <path d="M50 22 q-5 -8 0 -14 q5 6 3 10 q4 -3 4 -8 q6 8 0 14 Z" fill="#B0302A"/>
    </g></g>
</svg>