<svg xmlns="http://www.w3.org/2000/svg" viewBox="0 0 100 100" width="100" height="100" role="img" aria-label="han 굶주린 호랑이">
  <title>굶주린 호랑이 · sang 변신</title>
<defs>
    <filter id="carve" x="-14%" y="-14%" width="128%" height="128%">
      <feTurbulence type="fractalNoise" baseFrequency="0.055" numOctaves="3" seed="13" result="n"/>
      <feDisplacementMap in="SourceGraphic" in2="n" scale="2.6" xChannelSelector="R" yChannelSelector="G"/>
    </filter>
    <filter id="grain" x="0" y="0" width="100%" height="100%">
      <feTurbulence type="fractalNoise" baseFrequency="0.85" numOctaves="2" seed="24" result="t"/>
      <feColorMatrix in="t" type="saturate" values="0"/>
      <feComponentTransfer><feFuncA type="linear" slope="0.055"/></feComponentTransfer>
    </filter>
  </defs>
  <g transform="translate(50,50)"><path d="M -18.2,-44.0 L 18.2,-44.0 L 44.0,-18.2 L 44.0,18.2 L 18.2,44.0 L -18.2,44.0 L -44.0,18.2 L -44.0,-18.2 Z" fill="#D6C8A6" transform="translate(1.5,2.5)" opacity=".55"/><path d="M -18.2,-44.0 L 18.2,-44.0 L 44.0,-18.2 L 44.0,18.2 L 18.2,44.0 L -18.2,44.0 L -44.0,18.2 L -44.0,-18.2 Z" fill="#EDE4CD" stroke="#8A2420" stroke-width="2.4"/><path d="M -15.9,-38.5 L 15.9,-38.5 L 38.5,-15.9 L 38.5,15.9 L 15.9,38.5 L -15.9,38.5 L -38.5,15.9 L -38.5,-15.9 Z" fill="none" stroke="#B0302A" stroke-width="1.3" opacity=".8" filter="url(#carve)"/><path d="M -14.5,-35.0 L 14.5,-35.0 L 35.0,-14.5 L 35.0,14.5 L 14.5,35.0 L -14.5,35.0 L -35.0,14.5 L -35.0,-14.5 Z" fill="none" stroke="#B0302A" stroke-width="0.9" opacity=".5" filter="url(#carve)"/></g><g transform="translate(50,50) scale(.70) translate(-50,-50)" filter="url(#carve)"><g>
      <circle cx="21" cy="35" r="9.5" fill="#B0302A"/><circle cx="79" cy="35" r="9.5" fill="#B0302A"/>
      <circle cx="21" cy="35" r="3.8" fill="#EDE4CD"/><circle cx="79" cy="35" r="3.8" fill="#EDE4CD"/>
      <path d="M50 18 L75 26 L81 48 L72 71 L50 84 L28 71 L19 48 L25 26 Z" fill="#B0302A"/>
      <g stroke="#EDE4CD" stroke-width="3.6" stroke-linecap="round">
        <path d="M40 28 h20 M42 35 h16 M38 42 h24 M50 28 v14"/>
      </g>
      <path d="M31 52 L45 49 L43 58 Z" fill="#EDE4CD"/><path d="M69 52 L55 49 L57 58 Z" fill="#EDE4CD"/>
      <circle cx="38" cy="53" r="2.3" fill="#B0302A"/><circle cx="62" cy="53" r="2.3" fill="#B0302A"/>
      <path d="M37 65 q13 8 26 0 q-3 13 -13 13 t-13 -13 Z" fill="#EDE4CD"/>
      <path d="M42 67 l2.6 6 l2.6 -6 Z M52 67 l2.6 6 l2.6 -6 Z" fill="#B0302A"/>
      <g stroke="#EDE4CD" stroke-width="2.8" stroke-linecap="round"><path d="M24 56 h8 M25 64 h7 M76 56 h-8 M75 64 h-7"/></g>
    </g></g>
</svg>
